<svg width="1600" height="720" viewBox="0 0 1600 720" fill="none" xmlns="http://www.w3.org/2000/svg">
  <defs>
    <linearGradient id="bg" x1="0" y1="0" x2="1600" y2="720" gradientUnits="userSpaceOnUse">
      <stop stop-color="#1A0F08"/>
      <stop offset="0.55" stop-color="#2C1207"/>
      <stop offset="1" stop-color="#3A1806"/>
    </linearGradient>
    <radialGradient id="glowA" cx="0" cy="0" r="1" gradientUnits="userSpaceOnUse" gradientTransform="translate(370 230) rotate(34) scale(520 320)">
      <stop stop-color="#FF8C2A" stop-opacity="0.7"/>
      <stop offset="1" stop-color="#FF8C2A" stop-opacity="0"/>
    </radialGradient>
    <radialGradient id="glowB" cx="0" cy="0" r="1" gradientUnits="userSpaceOnUse" gradientTransform="translate(1180 470) rotate(-20) scale(500 280)">
      <stop stop-color="#FFC067" stop-opacity="0.55"/>
      <stop offset="1" stop-color="#FFC067" stop-opacity="0"/>
    </radialGradient>
    <linearGradient id="card" x1="240" y1="140" x2="1360" y2="580" gradientUnits="userSpaceOnUse">
      <stop stop-color="#FFFFFF" stop-opacity="0.16"/>
      <stop offset="1" stop-color="#FFFFFF" stop-opacity="0.05"/>
    </linearGradient>
  </defs>

  <rect width="1600" height="720" fill="url(#bg)"/>
  <rect width="1600" height="720" fill="url(#glowA)"/>
  <rect width="1600" height="720" fill="url(#glowB)"/>

  <g opacity="0.8">
    <rect x="210" y="120" width="1180" height="480" rx="34" fill="url(#card)" stroke="#FF9A3D" stroke-opacity="0.35" stroke-width="2"/>
    <rect x="280" y="200" width="450" height="32" rx="16" fill="#FF9A3D" fill-opacity="0.28"/>
    <rect x="280" y="250" width="360" height="22" rx="11" fill="#FFD099" fill-opacity="0.22"/>
    <rect x="280" y="286" width="420" height="22" rx="11" fill="#FFD099" fill-opacity="0.18"/>
    <rect x="280" y="322" width="300" height="22" rx="11" fill="#FFD099" fill-opacity="0.16"/>

    <circle cx="1080" cy="355" r="134" stroke="#FFB25A" stroke-opacity="0.75" stroke-width="14"/>
    <path d="M1080 220L1080 490" stroke="#FFB25A" stroke-opacity="0.65" stroke-width="8"/>
    <path d="M946 355L1214 355" stroke="#FFB25A" stroke-opacity="0.65" stroke-width="8"/>
    <circle cx="1080" cy="355" r="32" fill="#FF9A3D"/>

    <path d="M866 540H1298" stroke="#FF9A3D" stroke-opacity="0.4" stroke-width="4"/>
    <path d="M866 510H1220" stroke="#FF9A3D" stroke-opacity="0.28" stroke-width="4"/>
    <path d="M866 480H1150" stroke="#FF9A3D" stroke-opacity="0.18" stroke-width="4"/>
  </g>
</svg>
